<svg width="284" height="233" viewBox="0 0 284 233" fill="none" xmlns="http://www.w3.org/2000/svg">
<path d="M160.281 14.8934C160.681 15.4934 172.581 7.59335 172.681 7.69335C173.381 8.89335 148.681 29.1934 148.981 29.7934C148.981 29.8934 197.481 -0.906646 198.681 1.09335C198.681 1.09335 139.381 43.2934 139.481 43.4934C140.881 45.9934 212.981 1.09335 212.981 1.09335" stroke="#E20642" stroke-width="2" stroke-linecap="round" stroke-linejoin="round"/>
<path d="M30.0815 17.3934C30.0815 17.3934 44.6815 8.49335 44.8815 8.89335C44.8815 8.99335 17.3815 31.0934 17.8815 31.8934C18.4815 32.8934 70.0815 1.29335 70.2815 1.69335C72.2815 5.19335 9.7815 43.9934 10.3815 44.9934C12.3815 48.4934 83.3815 -1.60665 85.3815 1.69335C87.1815 4.99335 6.0815 54.4934 6.6815 55.4934C8.8815 59.2934 97.6815 -0.606649 99.2815 2.09335C100.982 5.09335 3.0815 63.3934 4.4815 65.8934C5.5815 67.8934 104.381 1.69335 107.181 6.59335C107.981 7.79335 -2.4185 72.7934 1.0815 78.7934C3.4815 83.0934 113.981 6.69335 116.981 11.8934C120.081 17.2934 6.0815 78.5934 9.2815 84.0934C12.6815 89.8934 119.581 11.9934 123.181 18.2934C126.081 23.1934 4.3815 95.8934 4.4815 95.8934C8.0815 102.193 124.682 18.1934 128.282 24.3934C131.982 30.8934 4.3815 98.2934 6.8815 102.693C9.5815 107.293 138.081 24.7934 138.981 26.3934C141.281 30.2934 8.8815 106.793 9.5815 108.093C9.6815 108.293 140.481 31.5934 140.881 32.2934C141.281 32.8934 11.3815 109.193 14.7815 115.093C15.1815 115.793 135.681 40.5933 137.681 44.0933C137.781 44.1933 20.0815 121.293 20.0815 121.293C20.7815 122.593 221.081 -8.40665 226.981 1.89335C226.981 1.89335 23.7815 125.193 25.7815 128.593C25.9815 128.893 234.081 7.49335 234.381 8.09335C235.781 10.4934 19.3815 126.293 25.9815 137.793C29.4815 143.993 242.381 -1.40665 248.581 9.39335C254.481 19.5934 34.4815 143.493 34.4815 143.493C37.8815 149.393 245.781 9.29335 251.081 18.4934C252.581 20.9934 39.5815 142.893 43.3815 149.493C48.9815 159.093 259.782 10.5934 265.882 21.0934C272.682 32.7934 49.9815 156.393 50.2815 156.893C55.2815 165.593 271.982 28.8934 271.982 28.8934C278.282 39.7934 50.8815 150.993 57.1815 161.893C58.7815 164.693 269.382 27.8934 274.382 36.4934C281.182 48.1934 60.1815 160.993 63.5815 166.793C69.6815 177.393 273.682 33.2934 278.982 42.4934C280.582 45.2934 62.5815 168.493 66.0815 174.493C68.2815 178.393 269.782 43.1934 275.682 53.4934C280.282 61.4934 76.8815 176.293 76.8815 176.293C76.8815 176.293 275.282 47.3933 281.482 58.0933C286.082 66.0933 72.0815 171.693 78.2815 182.393C83.2815 190.993 273.682 60.3934 277.682 67.2934C279.782 70.8934 85.8815 186.993 85.9815 187.293C88.0815 190.993 275.382 64.8934 280.982 74.5934C286.982 84.8934 94.9815 189.293 95.9815 191.093C100.081 198.093 277.682 75.8934 282.182 83.5934C285.982 90.2934 101.782 194.893 102.882 196.893C104.782 200.193 276.182 85.5934 281.082 93.9934C284.982 100.693 115.882 194.593 118.282 198.593C118.282 198.593 267.482 104.293 270.982 110.393C275.282 117.893 125.281 197.193 127.581 201.193C128.581 202.893 258.482 119.393 261.182 124.093C262.482 126.393 126.281 209.093 127.481 211.193L250.881 139.993C253.081 143.793 133.981 216.793 134.481 217.793C134.981 218.593 227.281 159.893 229.181 163.093C231.281 166.693 144.581 220.893 144.781 221.293C145.381 222.293 201.181 187.793 201.581 188.493C202.381 189.793 145.881 230.793 145.981 230.993C146.181 231.293 159.681 223.093 159.681 223.093" stroke="#E20642" stroke-width="2" stroke-linecap="round" stroke-linejoin="round"/>
</svg>
